<svg xmlns="http://www.w3.org/2000/svg" xmlns:xlink="http://www.w3.org/1999/xlink" width="500" zoomAndPan="magnify" viewBox="0 0 375 374.999991" height="500" preserveAspectRatio="xMidYMid meet" version="1.2"><defs><clipPath id="4413b1f487"><path d="M 21.375 21.375 L 353.625 21.375 L 353.625 353.625 L 21.375 353.625 Z M 21.375 21.375 "/></clipPath><clipPath id="c3a35f0a7b"><path d="M 110.113281 117.566406 L 264.453125 117.566406 L 264.453125 239.007812 L 110.113281 239.007812 Z M 110.113281 117.566406 "/></clipPath></defs><g id="cc1d8c446b"><g clip-rule="nonzero" clip-path="url(#4413b1f487)"><path style=" stroke:none;fill-rule:nonzero;fill:#800020;fill-opacity:1;" d="M 187.292969 353.398438 C 158.457031 353.398438 129.433594 353.542969 100.511719 353.398438 C 98.289062 353.40625 96.066406 353.320312 93.847656 353.140625 C 91.628906 352.960938 89.421875 352.6875 87.226562 352.320312 C 85.035156 351.953125 82.859375 351.496094 80.703125 350.941406 C 78.546875 350.390625 76.417969 349.75 74.316406 349.019531 C 72.214844 348.285156 70.148438 347.464844 68.117188 346.558594 C 66.085938 345.648438 64.09375 344.660156 62.148438 343.582031 C 60.199219 342.503906 58.300781 341.347656 56.453125 340.109375 C 54.601562 338.875 52.808594 337.558594 51.070312 336.167969 C 49.332031 334.78125 47.65625 333.320312 46.042969 331.785156 C 44.429688 330.253906 42.882812 328.65625 41.402344 326.992188 C 39.925781 325.332031 38.519531 323.609375 37.1875 321.824219 C 35.855469 320.042969 34.601562 318.207031 33.425781 316.320312 C 32.25 314.429688 31.15625 312.492188 30.144531 310.511719 C 29.128906 308.53125 28.203125 306.507812 27.363281 304.449219 C 26.523438 302.386719 25.769531 300.296875 25.109375 298.171875 C 24.445312 296.046875 23.875 293.898438 23.394531 291.726562 C 22.179688 286.453125 21.554688 281.113281 21.519531 275.699219 C 21.394531 216.953125 21.269531 158.289062 21.519531 99.460938 C 21.53125 98.199219 21.578125 96.933594 21.652344 95.671875 C 21.730469 94.410156 21.835938 93.148438 21.972656 91.890625 C 22.109375 90.636719 22.277344 89.382812 22.472656 88.132812 C 22.671875 86.882812 22.898438 85.640625 23.15625 84.402344 C 23.414062 83.164062 23.699219 81.929688 24.015625 80.707031 C 24.332031 79.484375 24.679688 78.265625 25.054688 77.058594 C 25.429688 75.851562 25.835938 74.652344 26.269531 73.464844 C 26.703125 72.277344 27.164062 71.101562 27.65625 69.933594 C 28.144531 68.769531 28.664062 67.617188 29.207031 66.476562 C 29.753906 65.335938 30.328125 64.207031 30.929688 63.09375 C 31.527344 61.980469 32.15625 60.882812 32.808594 59.800781 C 33.460938 58.71875 34.140625 57.652344 34.847656 56.601562 C 35.550781 55.550781 36.28125 54.519531 37.035156 53.503906 C 37.792969 52.488281 38.570312 51.492188 39.375 50.515625 C 40.175781 49.539062 41.003906 48.582031 41.851562 47.644531 C 42.699219 46.707031 43.570312 45.792969 44.464844 44.894531 C 45.359375 44 46.273438 43.128906 47.210938 42.277344 C 48.144531 41.425781 49.101562 40.597656 50.074219 39.792969 C 51.050781 38.988281 52.046875 38.207031 53.058594 37.453125 C 54.074219 36.695312 55.105469 35.964844 56.152344 35.257812 C 57.199219 34.550781 58.265625 33.867188 59.347656 33.210938 C 60.429688 32.558594 61.527344 31.929688 62.636719 31.324219 C 63.75 30.722656 64.875 30.148438 66.015625 29.601562 C 67.15625 29.050781 68.308594 28.53125 69.472656 28.039062 C 70.636719 27.546875 71.8125 27.082031 73 26.648438 C 74.1875 26.210938 75.386719 25.804688 76.59375 25.425781 C 77.800781 25.050781 79.015625 24.699219 80.238281 24.382812 C 81.460938 24.0625 82.691406 23.773438 83.929688 23.511719 C 85.167969 23.253906 86.410156 23.023438 87.660156 22.824219 C 88.910156 22.625 90.160156 22.457031 91.417969 22.316406 C 92.675781 22.175781 93.9375 22.070312 95.199219 21.992188 C 96.460938 21.914062 97.722656 21.863281 98.988281 21.847656 C 157.871094 21.558594 216.753906 21.558594 275.640625 21.847656 C 276.902344 21.863281 278.164062 21.910156 279.425781 21.988281 C 280.6875 22.066406 281.949219 22.175781 283.203125 22.316406 C 284.460938 22.453125 285.714844 22.621094 286.960938 22.820312 C 288.210938 23.019531 289.453125 23.25 290.6875 23.507812 C 291.925781 23.769531 293.15625 24.058594 294.378906 24.375 C 295.601562 24.695312 296.816406 25.042969 298.023438 25.417969 C 299.230469 25.796875 300.425781 26.203125 301.613281 26.636719 C 302.800781 27.074219 303.976562 27.535156 305.140625 28.027344 C 306.304688 28.519531 307.457031 29.039062 308.597656 29.585938 C 309.734375 30.132812 310.859375 30.710938 311.972656 31.3125 C 313.085938 31.914062 314.179688 32.542969 315.261719 33.195312 C 316.34375 33.851562 317.40625 34.53125 318.457031 35.238281 C 319.503906 35.945312 320.535156 36.675781 321.546875 37.429688 C 322.5625 38.1875 323.554688 38.96875 324.53125 39.773438 C 325.503906 40.574219 326.460938 41.402344 327.394531 42.253906 C 328.332031 43.101562 329.246094 43.976562 330.140625 44.871094 C 331.03125 45.765625 331.902344 46.679688 332.753906 47.617188 C 333.601562 48.550781 334.425781 49.507812 335.230469 50.484375 C 336.03125 51.460938 336.8125 52.457031 337.566406 53.472656 C 338.320312 54.484375 339.050781 55.515625 339.753906 56.566406 C 340.460938 57.613281 341.140625 58.679688 341.792969 59.761719 C 342.445312 60.84375 343.074219 61.941406 343.671875 63.054688 C 344.273438 64.167969 344.847656 65.292969 345.394531 66.433594 C 345.9375 67.574219 346.457031 68.726562 346.949219 69.890625 C 347.4375 71.054688 347.898438 72.230469 348.332031 73.417969 C 348.765625 74.605469 349.171875 75.804688 349.546875 77.011719 C 349.921875 78.21875 350.269531 79.433594 350.585938 80.65625 C 350.902344 81.878906 351.191406 83.109375 351.449219 84.347656 C 351.707031 85.585938 351.933594 86.828125 352.128906 88.078125 C 352.328125 89.324219 352.496094 90.578125 352.632812 91.835938 C 352.769531 93.089844 352.875 94.351562 352.953125 95.613281 C 353.027344 96.875 353.074219 98.136719 353.089844 99.398438 C 353.335938 158.117188 353.335938 216.859375 353.089844 275.617188 C 353.074219 276.882812 353.027344 278.148438 352.949219 279.410156 C 352.875 280.671875 352.765625 281.929688 352.628906 283.1875 C 352.492188 284.445312 352.324219 285.699219 352.128906 286.949219 C 351.929688 288.199219 351.703125 289.441406 351.445312 290.679688 C 351.1875 291.917969 350.898438 293.148438 350.582031 294.375 C 350.265625 295.597656 349.917969 296.8125 349.542969 298.023438 C 349.167969 299.230469 348.761719 300.425781 348.328125 301.617188 C 347.894531 302.804688 347.433594 303.980469 346.941406 305.144531 C 346.453125 306.3125 345.933594 307.464844 345.386719 308.605469 C 344.84375 309.746094 344.269531 310.875 343.667969 311.988281 C 343.066406 313.101562 342.441406 314.199219 341.789062 315.28125 C 341.132812 316.363281 340.453125 317.429688 339.75 318.480469 C 339.042969 319.53125 338.316406 320.5625 337.558594 321.578125 C 336.804688 322.59375 336.027344 323.589844 335.222656 324.566406 C 334.421875 325.542969 333.59375 326.5 332.746094 327.4375 C 331.898438 328.375 331.027344 329.292969 330.132812 330.1875 C 329.238281 331.082031 328.324219 331.957031 327.390625 332.808594 C 326.453125 333.660156 325.5 334.488281 324.523438 335.292969 C 323.546875 336.097656 322.554688 336.878906 321.539062 337.636719 C 320.527344 338.394531 319.496094 339.125 318.449219 339.832031 C 317.398438 340.539062 316.335938 341.222656 315.253906 341.878906 C 314.171875 342.535156 313.074219 343.164062 311.964844 343.765625 C 310.851562 344.371094 309.726562 344.945312 308.585938 345.496094 C 307.449219 346.042969 306.296875 346.5625 305.132812 347.058594 C 303.964844 347.550781 302.789062 348.015625 301.605469 348.453125 C 300.417969 348.886719 299.21875 349.296875 298.011719 349.675781 C 296.804688 350.054688 295.589844 350.402344 294.367188 350.722656 C 293.144531 351.042969 291.914062 351.332031 290.675781 351.59375 C 289.4375 351.855469 288.195312 352.085938 286.945312 352.285156 C 285.699219 352.488281 284.445312 352.65625 283.1875 352.796875 C 281.929688 352.9375 280.671875 353.046875 279.410156 353.128906 C 278.148438 353.207031 276.882812 353.253906 275.617188 353.273438 C 246.183594 353.5625 216.726562 353.273438 187.292969 353.273438 Z M 108.402344 290.964844 C 117.226562 289.433594 125.851562 287.148438 134.273438 284.109375 C 142.695312 281.066406 150.792969 277.316406 158.558594 272.859375 C 160.320312 271.855469 162.207031 271.46875 164.222656 271.703125 C 176.054688 273.835938 187.953125 274.324219 199.917969 273.167969 C 225.996094 270.425781 249.253906 261.179688 268.613281 243.238281 C 285.566406 227.542969 296.050781 208.363281 297.578125 185.027344 C 299.390625 156.953125 288.59375 133.820312 268.222656 114.992188 C 248.839844 97.113281 225.523438 87.722656 199.382812 85.476562 C 164.222656 82.449219 132.5625 91.324219 106.074219 115.300781 C 88.9375 130.875 78.511719 150.175781 77.011719 173.554688 C 75.074219 203.875 87.660156 227.953125 110.460938 247.007812 C 117.011719 252.464844 124.488281 256.8125 131.738281 261.816406 C 126.464844 272.816406 117.691406 281.507812 108.402344 290.964844 Z M 108.402344 290.964844 "/></g><path style=" stroke:none;fill-rule:nonzero;fill:#ffffff;fill-opacity:1;" d="M 108.402344 290.964844 C 117.691406 281.488281 126.464844 272.796875 131.738281 261.777344 C 124.488281 256.769531 117.011719 252.425781 110.460938 246.964844 C 87.660156 227.933594 75.074219 203.855469 77.011719 173.554688 C 78.511719 150.195312 88.9375 130.894531 106.074219 115.40625 C 132.5625 91.429688 164.222656 82.550781 199.382812 85.578125 C 225.523438 87.824219 248.820312 97.21875 268.222656 115.097656 C 288.59375 133.859375 299.390625 156.992188 297.578125 185.128906 C 296.050781 208.46875 285.566406 227.644531 268.613281 243.339844 C 249.253906 261.28125 225.996094 270.53125 199.917969 273.269531 C 187.953125 274.425781 176.054688 273.941406 164.222656 271.808594 C 162.207031 271.574219 160.320312 271.957031 158.558594 272.960938 C 150.789062 277.402344 142.691406 281.136719 134.269531 284.160156 C 125.84375 287.183594 117.222656 289.449219 108.402344 290.964844 Z M 108.402344 290.964844 "/><g clip-rule="nonzero" clip-path="url(#c3a35f0a7b)"><path style=" stroke:none;fill-rule:nonzero;fill:#800020;fill-opacity:1;" d="M 223.589844 139.558594 C 226.402344 139.558594 226.402344 135.191406 223.589844 135.191406 C 220.78125 135.191406 220.773438 139.558594 223.589844 139.558594 Z M 152.769531 138.886719 C 155.578125 138.886719 155.585938 134.515625 152.769531 134.515625 C 149.957031 134.515625 149.953125 138.886719 152.769531 138.886719 Z M 141.757812 155.488281 C 144.566406 155.488281 144.570312 151.121094 141.757812 151.121094 C 138.945312 151.121094 138.941406 155.488281 141.757812 155.488281 Z M 173.609375 146.609375 C 176.417969 146.609375 176.425781 142.242188 173.609375 142.242188 C 170.800781 142.242188 170.792969 146.609375 173.609375 146.609375 Z M 181.0625 128.550781 C 183.875 128.550781 183.875 124.179688 181.0625 124.179688 C 178.253906 124.179688 178.25 128.550781 181.0625 128.550781 Z M 218.675781 156.335938 C 221.492188 156.335938 221.496094 151.96875 218.675781 151.96875 C 215.867188 151.96875 215.863281 156.335938 218.675781 156.335938 Z M 204.617188 133.292969 C 207.425781 133.292969 207.429688 128.921875 204.617188 128.921875 C 201.804688 128.921875 201.796875 133.292969 204.617188 133.292969 Z M 187.285156 121.929688 C 152.234375 121.929688 123.71875 139.496094 123.71875 161.089844 L 123.71875 162.964844 C 123.71875 165.144531 125.488281 166.917969 127.667969 166.917969 L 246.90625 166.917969 C 249.082031 166.917969 250.855469 165.144531 250.855469 162.964844 L 250.855469 161.089844 C 250.855469 139.496094 222.339844 121.929688 187.289062 121.929688 Z M 246.90625 171.28125 L 127.667969 171.28125 C 123.082031 171.28125 119.355469 167.550781 119.355469 162.964844 L 119.355469 161.089844 C 119.355469 149.269531 126.554688 138.230469 139.632812 130.011719 C 152.394531 121.984375 169.316406 117.566406 187.285156 117.566406 C 205.253906 117.566406 222.179688 121.984375 234.9375 130.011719 C 248.015625 138.230469 255.214844 149.269531 255.214844 161.089844 L 255.214844 162.964844 C 255.214844 167.550781 251.484375 171.28125 246.90625 171.28125 Z M 258.351562 178.8125 C 258.640625 178.585938 258.542969 178.675781 258.222656 178.886719 C 257.761719 179.1875 257.300781 179.476562 256.820312 179.742188 C 255.390625 180.523438 253.832031 181.101562 252.214844 181.363281 C 249.816406 181.757812 247.375 181.394531 245.1875 180.332031 C 242.710938 179.132812 240.785156 177.140625 238.226562 176.050781 C 232.90625 173.773438 226.464844 174.882812 222.128906 178.742188 C 222.078125 178.777344 222.007812 178.828125 221.914062 178.886719 C 221.457031 179.1875 220.996094 179.476562 220.515625 179.742188 C 219.085938 180.523438 217.519531 181.101562 215.910156 181.363281 C 213.511719 181.757812 211.070312 181.394531 208.882812 180.332031 C 206.40625 179.132812 204.476562 177.140625 201.921875 176.050781 C 196.601562 173.773438 190.160156 174.882812 185.824219 178.742188 C 185.773438 178.777344 185.703125 178.828125 185.609375 178.886719 C 185.152344 179.1875 184.683594 179.476562 184.203125 179.742188 C 182.773438 180.523438 181.214844 181.101562 179.605469 181.363281 C 177.207031 181.757812 174.757812 181.394531 172.570312 180.332031 C 170.09375 179.132812 168.171875 177.140625 165.617188 176.050781 C 160.292969 173.773438 153.851562 174.882812 149.519531 178.742188 C 149.46875 178.777344 149.398438 178.828125 149.304688 178.886719 C 148.84375 179.1875 148.382812 179.476562 147.898438 179.742188 C 146.46875 180.523438 144.90625 181.101562 143.296875 181.363281 C 140.898438 181.757812 138.453125 181.394531 136.265625 180.332031 C 133.792969 179.132812 131.863281 177.140625 129.3125 176.050781 C 123.949219 173.761719 117.457031 174.894531 113.125 178.8125 C 111.035156 180.703125 114.132812 183.78125 116.214844 181.898438 C 117.539062 180.703125 119.765625 179.695312 121.695312 179.351562 C 127.320312 178.335938 130.582031 182.695312 135.285156 184.664062 C 140.992188 187.046875 147.746094 185.703125 152.523438 181.898438 C 153.847656 180.703125 156.074219 179.695312 158 179.351562 C 163.625 178.335938 166.890625 182.695312 171.59375 184.664062 C 177.300781 187.046875 184.050781 185.703125 188.828125 181.898438 C 190.152344 180.703125 192.378906 179.695312 194.308594 179.351562 C 199.933594 178.335938 203.195312 182.695312 207.898438 184.664062 C 213.605469 187.046875 220.355469 185.703125 225.140625 181.898438 C 226.464844 180.703125 228.683594 179.695312 230.613281 179.351562 C 236.242188 178.335938 239.503906 182.695312 244.210938 184.664062 C 249.910156 187.046875 256.667969 185.703125 261.445312 181.898438 C 263.640625 180.148438 260.53125 177.078125 258.351562 178.8125 Z M 117.566406 193.792969 C 115.863281 193.792969 114.480469 195.175781 114.480469 196.878906 L 114.480469 199.71875 C 114.480469 201.421875 115.863281 202.808594 117.566406 202.808594 L 257.003906 202.808594 C 258.707031 202.808594 260.089844 201.421875 260.089844 199.71875 L 260.089844 196.878906 C 260.089844 195.175781 258.707031 193.792969 257.003906 193.792969 Z M 257.003906 207.171875 L 117.566406 207.171875 C 113.460938 207.171875 110.117188 203.832031 110.117188 199.71875 L 110.117188 196.878906 C 110.117188 192.773438 113.460938 189.429688 117.566406 189.429688 L 257.003906 189.429688 C 261.109375 189.429688 264.453125 192.773438 264.453125 196.878906 L 264.453125 199.71875 C 264.453125 203.832031 261.109375 207.171875 257.003906 207.171875 Z M 127.667969 215.835938 C 125.488281 215.835938 123.714844 217.609375 123.714844 219.785156 L 123.714844 222.515625 C 123.714844 229.203125 129.15625 234.644531 135.84375 234.644531 L 238.722656 234.644531 C 245.414062 234.644531 250.851562 229.203125 250.851562 222.515625 L 250.851562 219.785156 C 250.851562 217.609375 249.078125 215.835938 246.902344 215.835938 Z M 238.722656 239.007812 L 135.847656 239.007812 C 126.753906 239.007812 119.355469 231.609375 119.355469 222.515625 L 119.355469 219.785156 C 119.355469 215.203125 123.082031 211.472656 127.667969 211.472656 L 246.90625 211.472656 C 251.488281 211.472656 255.21875 215.203125 255.21875 219.785156 L 255.21875 222.515625 C 255.21875 231.609375 247.824219 239.007812 238.726562 239.007812 "/></g></g></svg>